<?xml version="1.0" encoding="UTF-16"?>
<!DOCTYPE svg PUBLIC "-//W3C//DTD SVG 1.1//EN" "http://www.w3.org/Graphics/SVG/1.1/DTD/svg11.dtd">
<!-- Creator: CorelDRAW -->
<svg xmlns="http://www.w3.org/2000/svg" xml:space="preserve" width="1.89302in" height="0.612654in" version="1.1" style="shape-rendering:geometricPrecision; text-rendering:geometricPrecision; image-rendering:optimizeQuality; fill-rule:evenodd; clip-rule:evenodd"
viewBox="0 0 309.61 100.2"
 xmlns:xlink="http://www.w3.org/1999/xlink"
 xmlns:xodm="http://www.corel.com/coreldraw/odm/2003">
 <defs>
  <style type="text/css">
   <![CDATA[
    .fil0 {fill:#FFFFFF}
    .fil1 {fill:#D98A2C}
    .fil2 {fill:#FFFFFF;fill-rule:nonzero}
   ]]>
  </style>
 </defs>
 <g id="Layer_x0020_1">
  <metadata id="CorelCorpID_0Corel-Layer"/>
  <polygon class="fil0" points="18.26,44.08 18.26,92.23 -0,92.23 -0,33.99 54.13,0 106.9,33.13 106.9,33.14 106.9,33.14 106.9,92.22 106.9,92.22 106.9,92.23 77.44,92.23 59.67,73.96 88.64,73.96 88.64,43.22 54.13,21.56 "/>
  <polygon class="fil1" points="26.49,79.58 26.49,53.74 71.91,100.2 46.08,100.2 "/>
  <path class="fil2" d="M135 58.89l0 -38.7 16.19 0c2.8,0 5.22,0.48 7.25,1.42 2.03,0.94 3.61,2.29 4.74,4.03 1.12,1.75 1.69,3.8 1.69,6.16 0,1.78 -0.38,3.36 -1.14,4.74 -0.76,1.38 -1.79,2.49 -3.08,3.33 -1.29,0.84 -2.72,1.34 -4.28,1.53l-0.27 -0.55c2.51,0 4.44,0.56 5.81,1.69 1.37,1.12 2.13,2.85 2.31,5.18l0.98 11.17 -7.2 0 -0.82 -10.14c-0.11,-1.53 -0.6,-2.66 -1.47,-3.38 -0.87,-0.73 -2.33,-1.09 -4.36,-1.09l-9.27 0 0 14.61 -7.08 0 -0.01 0zm7.08 -20.83l8.67 0c2.14,0 3.81,-0.51 5.02,-1.53 1.2,-1.02 1.8,-2.46 1.8,-4.31 0,-1.89 -0.61,-3.35 -1.83,-4.36 -1.22,-1.02 -2.99,-1.53 -5.31,-1.53l-8.34 0 0 11.72 -0.01 -0z"/>
  <path id="_1" class="fil2" d="M187.22 59.76c-3.12,0 -5.86,-0.6 -8.2,-1.8 -2.34,-1.2 -4.13,-2.89 -5.37,-5.07 -1.24,-2.18 -1.87,-4.8 -1.91,-7.85l0.05 -24.86 7.03 0 0 24.86c-0.03,2.76 0.68,4.88 2.15,6.35 1.47,1.47 3.55,2.21 6.24,2.21 2.69,0 4.77,-0.74 6.24,-2.21 1.47,-1.47 2.21,-3.59 2.21,-6.35l0 -24.86 7.08 0 0 24.86c-0.03,3.05 -0.68,5.67 -1.93,7.85 -1.25,2.18 -3.04,3.87 -5.37,5.07 -2.33,1.2 -5.07,1.8 -8.23,1.8l-0 0z"/>
  <polygon id="_2" class="fil2" points="211.48,58.89 211.48,20.18 221.02,20.18 231.71,50.17 242.4,20.18 251.94,20.18 251.94,58.89 244.84,58.89 244.84,32.18 235.09,58.83 228.33,58.83 218.57,32.18 218.57,58.89 "/>
  <polygon id="_3" class="fil2" points="259.78,58.89 259.78,20.18 266.87,20.18 266.87,58.89 "/>
  <path id="_4" class="fil2" d="M291.13 59.76c-3.81,0 -7.1,-0.81 -9.87,-2.43 -2.76,-1.62 -4.88,-3.93 -6.35,-6.95 -1.47,-3.02 -2.19,-6.62 -2.15,-10.79 -0.03,-4.18 0.68,-7.79 2.15,-10.82 1.47,-3.04 3.58,-5.37 6.32,-7 2.74,-1.63 6.04,-2.46 9.89,-2.46 3.85,0 7.16,0.82 9.92,2.46 2.76,1.63 4.88,3.97 6.35,7 1.47,3.04 2.21,6.64 2.21,10.82 0,4.18 -0.74,7.78 -2.21,10.79 -1.47,3.02 -3.59,5.33 -6.35,6.95 -2.76,1.62 -6.07,2.43 -9.92,2.43zm0 -6.16c2.36,0 4.38,-0.56 6.05,-1.66 1.67,-1.11 2.94,-2.71 3.81,-4.8 0.87,-2.09 1.32,-4.61 1.37,-7.55 -0.03,-2.94 -0.49,-5.47 -1.37,-7.58 -0.87,-2.11 -2.15,-3.73 -3.84,-4.85 -1.69,-1.12 -3.7,-1.69 -6.02,-1.69 -2.29,0 -4.27,0.56 -5.94,1.69 -1.67,1.12 -2.95,2.74 -3.84,4.85 -0.89,2.11 -1.34,4.64 -1.34,7.58 0,2.94 0.45,5.46 1.34,7.55 0.89,2.09 2.16,3.69 3.81,4.8 1.65,1.11 3.65,1.66 5.97,1.66l0 0z"/>
  <path class="fil2" d="M139.15 80.89c-0.9,0 -1.69,-0.16 -2.35,-0.48 -0.66,-0.32 -1.18,-0.76 -1.55,-1.34 -0.37,-0.57 -0.6,-1.24 -0.66,-2l2.04 -0.12c0.06,0.48 0.2,0.88 0.41,1.2 0.21,0.33 0.5,0.58 0.85,0.75 0.35,0.17 0.78,0.25 1.29,0.25 0.43,0 0.8,-0.05 1.1,-0.16 0.3,-0.11 0.54,-0.27 0.7,-0.48 0.16,-0.21 0.24,-0.47 0.24,-0.78 0,-0.28 -0.07,-0.53 -0.2,-0.75 -0.13,-0.22 -0.39,-0.42 -0.77,-0.6 -0.38,-0.18 -0.95,-0.36 -1.7,-0.54 -0.91,-0.21 -1.63,-0.44 -2.17,-0.7 -0.55,-0.26 -0.94,-0.59 -1.19,-0.99 -0.25,-0.39 -0.37,-0.89 -0.37,-1.49 0,-0.64 0.16,-1.2 0.48,-1.69 0.32,-0.49 0.77,-0.87 1.36,-1.14 0.59,-0.27 1.29,-0.41 2.11,-0.41 0.88,0 1.62,0.15 2.22,0.47 0.61,0.31 1.08,0.74 1.44,1.29 0.35,0.55 0.57,1.17 0.65,1.89l-2.02 0.09c-0.05,-0.4 -0.17,-0.75 -0.36,-1.05 -0.19,-0.3 -0.45,-0.54 -0.77,-0.7 -0.32,-0.17 -0.72,-0.25 -1.18,-0.25 -0.58,0 -1.03,0.13 -1.37,0.39 -0.33,0.26 -0.5,0.61 -0.5,1.04 0,0.3 0.07,0.55 0.21,0.74 0.14,0.19 0.39,0.36 0.75,0.5 0.36,0.14 0.86,0.29 1.51,0.44 0.98,0.21 1.75,0.47 2.33,0.79 0.58,0.32 0.99,0.69 1.24,1.11 0.25,0.42 0.37,0.9 0.37,1.45 0,0.67 -0.17,1.25 -0.51,1.74 -0.34,0.49 -0.82,0.86 -1.44,1.13 -0.62,0.26 -1.34,0.39 -2.17,0.39l-0.02 0z"/>
  <path id="_1_0" class="fil2" d="M153.21 80.89c-1.08,0 -2.01,-0.23 -2.8,-0.69 -0.78,-0.46 -1.39,-1.12 -1.8,-1.97 -0.41,-0.86 -0.62,-1.87 -0.61,-3.06 -0.01,-1.18 0.19,-2.21 0.61,-3.06 0.41,-0.86 1.02,-1.52 1.79,-1.99 0.78,-0.46 1.71,-0.7 2.8,-0.7 1.09,0 2.03,0.23 2.81,0.7 0.78,0.46 1.39,1.12 1.8,1.99 0.41,0.86 0.63,1.88 0.63,3.06 0,1.18 -0.21,2.2 -0.63,3.06 -0.41,0.86 -1.02,1.51 -1.8,1.97 -0.78,0.46 -1.72,0.69 -2.81,0.69zm0 -1.75c0.67,0 1.24,-0.15 1.71,-0.47 0.48,-0.31 0.84,-0.77 1.08,-1.36 0.25,-0.59 0.37,-1.3 0.39,-2.14 -0.01,-0.84 -0.14,-1.55 -0.39,-2.15 -0.25,-0.6 -0.61,-1.06 -1.09,-1.37 -0.48,-0.32 -1.05,-0.48 -1.71,-0.48 -0.65,0 -1.21,0.16 -1.69,0.48 -0.48,0.32 -0.84,0.78 -1.09,1.37 -0.25,0.6 -0.37,1.31 -0.37,2.15 0,0.84 0.13,1.55 0.37,2.14 0.25,0.59 0.62,1.04 1.08,1.36 0.47,0.31 1.03,0.47 1.69,0.47l0 0z"/>
  <polygon id="_2_1" class="fil2" points="163.38,80.64 163.38,69.67 165.4,69.67 165.4,80.02 164.3,78.89 170.6,78.89 170.6,80.64 "/>
  <path id="_3_2" class="fil2" d="M179.18 80.89c-0.88,0 -1.66,-0.17 -2.32,-0.51 -0.66,-0.34 -1.17,-0.82 -1.52,-1.44 -0.35,-0.62 -0.53,-1.36 -0.54,-2.22l0.01 -7.04 1.99 0 0 7.04c-0.01,0.78 0.19,1.39 0.61,1.8 0.41,0.41 1,0.62 1.77,0.62 0.76,0 1.35,-0.21 1.77,-0.62 0.41,-0.41 0.62,-1.02 0.62,-1.8l0 -7.04 2.01 0 0 7.04c-0.01,0.86 -0.19,1.61 -0.55,2.22 -0.35,0.62 -0.86,1.1 -1.52,1.44 -0.66,0.34 -1.44,0.51 -2.33,0.51l0.01 0z"/>
  <path id="_4_3" class="fil2" d="M193.19 80.89c-0.9,0 -1.69,-0.16 -2.35,-0.48 -0.66,-0.32 -1.18,-0.76 -1.55,-1.34 -0.37,-0.57 -0.6,-1.24 -0.66,-2l2.04 -0.12c0.06,0.48 0.2,0.88 0.41,1.2 0.21,0.33 0.5,0.58 0.85,0.75 0.35,0.17 0.78,0.25 1.29,0.25 0.43,0 0.8,-0.05 1.1,-0.16 0.3,-0.11 0.54,-0.27 0.7,-0.48 0.16,-0.21 0.24,-0.47 0.24,-0.78 0,-0.28 -0.07,-0.53 -0.2,-0.75 -0.13,-0.22 -0.39,-0.42 -0.77,-0.6 -0.38,-0.18 -0.95,-0.36 -1.7,-0.54 -0.91,-0.21 -1.63,-0.44 -2.17,-0.7 -0.55,-0.26 -0.94,-0.59 -1.19,-0.99 -0.25,-0.39 -0.37,-0.89 -0.37,-1.49 0,-0.64 0.16,-1.2 0.48,-1.69 0.32,-0.49 0.77,-0.87 1.36,-1.14 0.59,-0.27 1.29,-0.41 2.11,-0.41 0.88,0 1.62,0.15 2.22,0.47 0.61,0.31 1.08,0.74 1.44,1.29 0.35,0.55 0.57,1.17 0.65,1.89l-2.02 0.09c-0.05,-0.4 -0.17,-0.75 -0.36,-1.05 -0.19,-0.3 -0.45,-0.54 -0.77,-0.7 -0.32,-0.17 -0.72,-0.25 -1.18,-0.25 -0.58,0 -1.03,0.13 -1.37,0.39 -0.33,0.26 -0.5,0.61 -0.5,1.04 0,0.3 0.07,0.55 0.21,0.74 0.14,0.19 0.39,0.36 0.75,0.5 0.36,0.14 0.86,0.29 1.51,0.44 0.98,0.21 1.75,0.47 2.33,0.79 0.58,0.32 0.99,0.69 1.24,1.11 0.25,0.42 0.37,0.9 0.37,1.45 0,0.67 -0.17,1.25 -0.51,1.74 -0.34,0.49 -0.82,0.86 -1.44,1.13 -0.62,0.26 -1.34,0.39 -2.17,0.39l-0.02 0z"/>
  <polygon id="_5" class="fil2" points="202.75,80.64 202.75,69.67 204.76,69.67 204.76,80.64 "/>
  <path id="_6" class="fil2" d="M214.11 80.64l0 -10.97 4.25 0c1.28,0 2.29,0.31 3.01,0.92 0.72,0.62 1.08,1.47 1.08,2.56 0,0.73 -0.17,1.37 -0.5,1.89 -0.33,0.53 -0.8,0.94 -1.4,1.21 -0.61,0.28 -1.34,0.41 -2.19,0.41l-2.24 0 0 3.95 -2.01 0 0 0.01zm2.01 -5.7l2.15 0c0.68,0 1.2,-0.15 1.57,-0.45 0.37,-0.3 0.55,-0.74 0.55,-1.33 0,-0.58 -0.18,-1.01 -0.55,-1.3 -0.37,-0.29 -0.89,-0.44 -1.57,-0.44l-2.15 0 0 3.52 0 0.01z"/>
  <path id="_7" class="fil2" d="M227.3 80.64l0 -10.97 4.59 0c0.79,0 1.48,0.13 2.05,0.4 0.58,0.27 1.02,0.65 1.34,1.14 0.32,0.5 0.48,1.08 0.48,1.75 0,0.5 -0.11,0.95 -0.32,1.34 -0.21,0.39 -0.51,0.7 -0.88,0.94 -0.37,0.23 -0.77,0.38 -1.21,0.43l-0.08 -0.15c0.71,0 1.26,0.16 1.65,0.48 0.39,0.32 0.6,0.81 0.66,1.46l0.28 3.16 -2.04 0 -0.23 -2.87c-0.03,-0.43 -0.17,-0.75 -0.41,-0.96 -0.25,-0.21 -0.66,-0.31 -1.24,-0.31l-2.62 0 0 4.14 -2.01 0 -0.01 -0.01zm2.01 -5.9l2.46 0c0.61,0 1.08,-0.15 1.42,-0.43 0.34,-0.29 0.51,-0.7 0.51,-1.22 0,-0.54 -0.17,-0.95 -0.52,-1.24 -0.35,-0.29 -0.85,-0.43 -1.51,-0.43l-2.36 0 0 3.32 0 0.01z"/>
  <path id="_8" class="fil2" d="M245.59 80.89c-1.08,0 -2.01,-0.23 -2.8,-0.69 -0.78,-0.46 -1.39,-1.12 -1.8,-1.97 -0.41,-0.86 -0.62,-1.87 -0.61,-3.06 -0.01,-1.18 0.19,-2.21 0.61,-3.06 0.41,-0.86 1.02,-1.52 1.79,-1.99 0.78,-0.46 1.71,-0.7 2.8,-0.7 1.09,0 2.03,0.23 2.81,0.7 0.78,0.46 1.39,1.12 1.8,1.99 0.41,0.86 0.63,1.88 0.63,3.06 0,1.18 -0.21,2.2 -0.63,3.06 -0.41,0.86 -1.02,1.51 -1.8,1.97 -0.78,0.46 -1.72,0.69 -2.81,0.69zm0 -1.75c0.67,0 1.24,-0.15 1.71,-0.47 0.48,-0.31 0.84,-0.77 1.08,-1.36 0.25,-0.59 0.37,-1.3 0.39,-2.14 -0.01,-0.84 -0.14,-1.55 -0.39,-2.15 -0.25,-0.6 -0.61,-1.06 -1.09,-1.37 -0.48,-0.32 -1.05,-0.48 -1.71,-0.48 -0.65,0 -1.21,0.16 -1.69,0.48 -0.48,0.32 -0.84,0.78 -1.09,1.37 -0.25,0.6 -0.37,1.31 -0.37,2.15 0,0.84 0.13,1.55 0.37,2.14 0.25,0.59 0.62,1.04 1.08,1.36 0.47,0.31 1.03,0.47 1.69,0.47l0 0z"/>
  <path id="_9" class="fil2" d="M256.1 80.64l0 -10.97 4.25 0c1.28,0 2.29,0.31 3.01,0.92 0.72,0.62 1.08,1.47 1.08,2.56 0,0.73 -0.17,1.37 -0.5,1.89 -0.33,0.53 -0.8,0.94 -1.4,1.21 -0.61,0.28 -1.34,0.41 -2.19,0.41l-2.24 0 0 3.95 -2.01 0 0 0.01zm2.01 -5.7l2.15 0c0.68,0 1.2,-0.15 1.57,-0.45 0.37,-0.3 0.55,-0.74 0.55,-1.33 0,-0.58 -0.18,-1.01 -0.55,-1.3 -0.37,-0.29 -0.89,-0.44 -1.57,-0.44l-2.15 0 0 3.52 0 0.01z"/>
  <polygon id="_10" class="fil2" points="269.3,80.64 269.28,69.67 276.65,69.67 276.66,71.42 271.28,71.42 271.29,74.28 276.46,74.29 276.47,76 271.28,75.99 271.29,78.89 276.77,78.89 276.79,80.64 "/>
  <path id="_11" class="fil2" d="M281.94 80.64l0 -10.97 4.59 0c0.79,0 1.48,0.13 2.05,0.4 0.58,0.27 1.02,0.65 1.34,1.14 0.32,0.5 0.48,1.08 0.48,1.75 0,0.5 -0.11,0.95 -0.32,1.34 -0.21,0.39 -0.51,0.7 -0.88,0.94 -0.37,0.23 -0.77,0.38 -1.21,0.43l-0.08 -0.15c0.71,0 1.26,0.16 1.65,0.48 0.39,0.32 0.6,0.81 0.66,1.46l0.28 3.16 -2.04 0 -0.23 -2.87c-0.03,-0.43 -0.17,-0.75 -0.41,-0.96 -0.25,-0.21 -0.66,-0.31 -1.24,-0.31l-2.62 0 0 4.14 -2.01 0 -0.01 -0.01zm2.01 -5.9l2.46 0c0.61,0 1.08,-0.15 1.42,-0.43 0.34,-0.29 0.51,-0.7 0.51,-1.22 0,-0.54 -0.17,-0.95 -0.52,-1.24 -0.35,-0.29 -0.85,-0.43 -1.51,-0.43l-2.36 0 0 3.32 0 0.01z"/>
  <polygon id="_12" class="fil2" points="297.81,80.64 297.81,71.42 294.49,71.42 294.47,69.67 303.14,69.67 303.14,71.42 299.8,71.42 299.82,80.64 "/>
  <polygon id="_13" class="fil2" points="307.46,80.64 307.46,69.67 309.46,69.67 309.46,80.64 "/>
 </g>
</svg>
